<svg width="33" height="33" viewBox="0 0 33 33" fill="none" xmlns="http://www.w3.org/2000/svg">
<path d="M16.5002 32.7501C9.92477 32.7538 3.99505 28.7946 1.4782 22.7199C-1.03864 16.6451 0.353504 9.65235 5.005 5.00472C9.11185 0.89786 15.0977 -0.70605 20.7078 0.797164C26.3179 2.30038 30.6998 6.68234 32.2031 12.2924C33.7063 17.9025 32.1024 23.8884 27.9955 27.9952C24.9526 31.0519 20.8133 32.764 16.5002 32.7501ZM3.50025 16.7795C3.57713 23.9315 9.41705 29.678 16.5694 29.6397C23.7217 29.6011 29.4995 23.7921 29.4995 16.6397C29.4995 9.48729 23.7217 3.67835 16.5694 3.63971C9.41705 3.60146 3.57713 9.34795 3.50025 16.5V16.7795ZM12.2899 23L10.0002 20.7087L14.209 16.5L10.0002 12.2912L12.2915 9.99997L16.5002 14.2087L20.709 9.99997L23.0002 12.2912L18.7915 16.5L23.0002 20.7087L20.7106 23L16.5002 18.7912L12.2915 23H12.2899Z" fill="#222222" fill-opacity="0.33"/>
</svg>
