<?xml version="1.0" encoding="utf-8"?>
<!-- Generator: Adobe Illustrator 22.0.1, SVG Export Plug-In . SVG Version: 6.00 Build 0)  -->
<svg version="1.1" id="Bold" xmlns="http://www.w3.org/2000/svg" xmlns:xlink="http://www.w3.org/1999/xlink" x="0px" y="0px"
	 viewBox="0 0 29.7 17.7" style="enable-background:new 0 0 29.7 17.7;" xml:space="preserve">
<style type="text/css">
	.st0{fill:none;stroke:#000000;stroke-width:0.9921;stroke-miterlimit:10;}
</style>
<path class="st0" d="M24.3,10.1c-0.5-0.6-0.3-0.8,0-1.4c0,0,3.8-5.3,4.2-7.1l0,0c0.2-0.7,0-1.1-0.9-1.1h-3.1c-0.8,0-1.2,0.4-1.4,0.9
	c0,0-1.6,3.8-3.9,6.3c-0.7,0.7-1.1,0.9-1.5,0.9c-0.2,0-0.5-0.2-0.5-0.9V1.6c0-0.8-0.2-1.1-0.9-1.1h-4.9c-0.5,0-0.8,0.4-0.8,0.7
	c0,0.7,1.1,0.9,1.2,3v4.5c0,1-0.2,1.2-0.6,1.2c-1.1,0-3.7-3.8-5.2-8.2C5.8,0.8,5.5,0.5,4.7,0.5H1.6c-0.9,0-1.1,0.4-1.1,0.9
	c0,0.8,1.1,4.9,5,10.2c2.6,3.7,6.2,5.6,9.6,5.6c2,0,2.2-0.4,2.2-1.2c0-3.5-0.2-3.8,0.8-3.8c0.5,0,1.3,0.2,3.1,2c2.1,2.1,2.5,3,3.7,3
	H28c0.9,0,1.3-0.4,1.1-1.3C28.5,14.1,24.5,10.3,24.3,10.1z"/>
</svg>
