<svg width="25" height="24" viewBox="0 0 25 24" fill="none" xmlns="http://www.w3.org/2000/svg">
<path d="M0.290209 8.27066L2.49691 6.06396C2.67495 5.88832 2.91233 5.78576 3.16225 5.7765C3.41217 5.76725 3.65649 5.85197 3.84703 6.01395C4.1412 6.26434 4.51871 6.39508 4.90473 6.38027C5.29075 6.36545 5.65712 6.20615 5.93122 5.93394C6.20329 5.65986 6.3625 5.2936 6.37732 4.90769C6.39213 4.52179 6.26148 4.14439 6.01123 3.85025C5.84925 3.65971 5.76453 3.41539 5.77378 3.16547C5.78304 2.91555 5.8856 2.67817 6.06124 2.50013L8.26994 0.290928C8.45659 0.104631 8.70954 0 8.97325 0C9.23697 0 9.48991 0.104631 9.67657 0.290928L13.1944 3.80825C13.4116 4.02622 13.5754 4.2915 13.6729 4.58332C13.6919 4.63943 13.7236 4.6904 13.7655 4.73229C13.8074 4.77417 13.8583 4.80585 13.9145 4.82484C14.2064 4.92241 14.4717 5.08639 14.6895 5.30389L23.7104 14.3247C23.8967 14.5114 24.0013 14.7643 24.0013 15.028C24.0013 15.2917 23.8967 15.5447 23.7104 15.7313L21.5012 17.938C21.3231 18.1137 21.0857 18.2162 20.8358 18.2255C20.5859 18.2348 20.3416 18.15 20.151 17.9881C19.8576 17.7356 19.4795 17.6034 19.0927 17.618C18.7059 17.6325 18.3389 17.7927 18.0652 18.0664C17.7914 18.3401 17.6313 18.7071 17.6167 19.0939C17.6022 19.4808 17.7344 19.8588 17.9868 20.1522C18.1488 20.3428 18.2335 20.5871 18.2243 20.837C18.215 21.087 18.1125 21.3243 17.9368 21.5024L15.7301 23.7091C15.5435 23.8954 15.2905 24 15.0268 24C14.7631 24 14.5101 23.8954 14.3235 23.7091L5.30267 14.6882C5.08529 14.4705 4.92132 14.2054 4.82362 13.9137C4.80471 13.8574 4.77301 13.8062 4.73103 13.7643C4.68904 13.7223 4.63789 13.6906 4.5816 13.6717C4.28993 13.5741 4.02482 13.4103 3.80703 13.1931L0.289707 9.67529C0.104088 9.48865 -6.67572e-05 9.2361 2.67029e-05 8.97287C0.000120163 8.70964 0.104454 8.45716 0.290209 8.27066ZM11.7098 6.78802C11.7841 6.86234 11.8723 6.92129 11.9693 6.9615C12.0664 7.00172 12.1705 7.02242 12.2756 7.02242C12.3806 7.02242 12.4847 7.00172 12.5818 6.9615C12.6789 6.92129 12.7671 6.86234 12.8414 6.78802L13.4169 6.21247C13.5633 6.06167 13.6445 5.85933 13.6429 5.64917C13.6413 5.439 13.5571 5.2379 13.4085 5.08933C13.2598 4.94075 13.0587 4.85662 12.8485 4.85513C12.6384 4.85365 12.436 4.93491 12.2853 5.08137L11.7098 5.65642C11.6354 5.73072 11.5765 5.81892 11.5363 5.916C11.4961 6.01309 11.4754 6.11714 11.4754 6.22222C11.4754 6.3273 11.4961 6.43136 11.5363 6.52844C11.5765 6.62552 11.6354 6.71373 11.7098 6.78802ZM9.50955 8.98822C9.65958 9.13815 9.863 9.22237 10.0751 9.22237C10.2872 9.22237 10.4906 9.13815 10.6407 8.98822L11.1907 8.43817C11.265 8.36387 11.3239 8.27566 11.3642 8.17858C11.4044 8.0815 11.4251 7.97745 11.4251 7.87237C11.4251 7.76729 11.4044 7.66324 11.3642 7.56616C11.3239 7.46908 11.265 7.38087 11.1907 7.30657C11.0406 7.15651 10.8371 7.07221 10.6249 7.07221C10.5198 7.07221 10.4158 7.0929 10.3187 7.13312C10.2216 7.17333 10.1334 7.23227 10.0591 7.30657L9.50905 7.85662C9.43448 7.93091 9.3753 8.01919 9.33491 8.11639C9.29451 8.21359 9.2737 8.31781 9.27365 8.42307C9.2736 8.52833 9.29433 8.63257 9.33464 8.7298C9.37495 8.82704 9.43405 8.91537 9.50855 8.98973L9.50955 8.98822ZM7.30935 11.1884C7.38365 11.2627 7.47186 11.3217 7.56894 11.3619C7.66602 11.4021 7.77007 11.4228 7.87515 11.4228C7.98024 11.4228 8.08429 11.4021 8.18137 11.3619C8.27845 11.3217 8.36666 11.2627 8.44096 11.1884L8.99101 10.6384C9.1374 10.4876 9.21857 10.2852 9.21699 10.0751C9.21541 9.86491 9.13119 9.66381 8.98255 9.51523C8.83391 9.36665 8.63277 9.28253 8.42261 9.28104C8.21244 9.27955 8.01014 9.36082 7.8594 9.50727L7.30935 10.0573C7.23457 10.1315 7.17518 10.2197 7.13457 10.3169C7.09395 10.414 7.07293 10.5183 7.0727 10.6236C7.07247 10.7289 7.09303 10.8333 7.13321 10.9306C7.17339 11.028 7.2324 11.1164 7.30685 11.1909L7.30935 11.1884ZM5.08765 13.4156C5.16194 13.4899 5.25015 13.5489 5.34723 13.5891C5.44431 13.6293 5.54837 13.65 5.65345 13.65C5.75853 13.65 5.86259 13.6293 5.95967 13.5891C6.05675 13.5489 6.14496 13.4899 6.21925 13.4156L6.7913 12.8406C6.86718 12.7665 6.92757 12.6781 6.96897 12.5805C7.01036 12.4828 7.03194 12.378 7.03245 12.2719C7.03296 12.1659 7.01238 12.0608 6.97191 11.9628C6.93145 11.8648 6.87191 11.7758 6.79675 11.701C6.72158 11.6262 6.6323 11.5671 6.53409 11.5271C6.43588 11.4871 6.33071 11.467 6.22468 11.4681C6.11864 11.4691 6.01387 11.4912 5.91645 11.5331C5.81903 11.5749 5.73091 11.6357 5.6572 11.712L5.08465 12.2865C5.01037 12.3609 4.95146 12.4491 4.91128 12.5462C4.87111 12.6433 4.85045 12.7473 4.8505 12.8524C4.85054 12.9575 4.87129 13.0616 4.91155 13.1586C4.95181 13.2557 5.0108 13.3439 5.08515 13.4181L5.08765 13.4156Z" fill="white"/>
</svg>
