<?xml version="1.0" encoding="utf-8"?>
<!-- Generator: Adobe Illustrator 22.1.0, SVG Export Plug-In . SVG Version: 6.00 Build 0)  -->
<svg version="1.1" id="Слой_1" xmlns="http://www.w3.org/2000/svg" xmlns:xlink="http://www.w3.org/1999/xlink" x="0px" y="0px"
	 viewBox="0 0 36 42" style="enable-background:new 0 0 36 42;" xml:space="preserve">
<style type="text/css">
	.st0{fill:#FFFFFF;}
</style>
<g>
	<path class="st0" d="M13.4,40.9H6.1c-0.7,0-1.2-0.6-1.2-1.2V2.3c0-0.7,0.6-1.2,1.2-1.2h7.4c0.7,0,1.2,0.6,1.2,1.2v37.3
		C14.7,40.4,14.1,40.9,13.4,40.9z"/>
	<path class="st0" d="M29.9,40.9h-7.4c-0.7,0-1.2-0.6-1.2-1.2V2.3c0-0.7,0.6-1.2,1.2-1.2h7.4c0.7,0,1.2,0.6,1.2,1.2v37.3
		C31.2,40.4,30.6,40.9,29.9,40.9z"/>
</g>
</svg>
