<svg width="26" height="26" viewBox="0 0 26 26" fill="none" xmlns="http://www.w3.org/2000/svg">
<path d="M0.314346 8.95988L2.70481 6.56929C2.89768 6.37901 3.15483 6.26791 3.42556 6.25788C3.6963 6.24785 3.96096 6.33963 4.16737 6.51511C4.48604 6.78637 4.89498 6.92801 5.31315 6.91195C5.73131 6.8959 6.12819 6.72333 6.42513 6.42844C6.71985 6.13152 6.89231 5.73473 6.90837 5.31667C6.92442 4.8986 6.78288 4.48976 6.5118 4.17111C6.33632 3.96469 6.24455 3.70001 6.25458 3.42926C6.2646 3.15851 6.3757 2.90135 6.56597 2.70847L8.9586 0.315172C9.1608 0.11335 9.43481 0 9.72049 0C10.0062 0 10.2802 0.11335 10.4824 0.315172L14.2931 4.1256C14.5284 4.36173 14.7059 4.64912 14.8115 4.96526C14.8321 5.02605 14.8664 5.08127 14.9118 5.12665C14.9572 5.17202 15.0124 5.20633 15.0732 5.22691C15.3894 5.33261 15.6768 5.51025 15.9128 5.74588L25.6848 15.5184C25.8867 15.7206 26 15.9947 26 16.2804C26 16.5661 25.8867 16.8401 25.6848 17.0423L23.2917 19.4329C23.0988 19.6232 22.8417 19.7343 22.5709 19.7443C22.3002 19.7543 22.0355 19.6625 21.8291 19.4871C21.5112 19.2136 21.1017 19.0704 20.6827 19.0861C20.2636 19.1019 19.866 19.2754 19.5695 19.5719C19.273 19.8684 19.0995 20.2661 19.0838 20.6851C19.068 21.1042 19.2112 21.5137 19.4847 21.8316C19.6602 22.038 19.7519 22.3027 19.7419 22.5734C19.7319 22.8442 19.6208 23.1014 19.4305 23.2942L17.04 25.6848C16.8378 25.8867 16.5638 26 16.2782 26C15.9925 26 15.7185 25.8867 15.5163 25.6848L5.74423 15.9123C5.50875 15.6764 5.33112 15.3892 5.22529 15.0731C5.2048 15.0122 5.17047 14.9568 5.12498 14.9113C5.07949 14.8658 5.02409 14.8314 4.96311 14.811C4.64715 14.7052 4.35996 14.5278 4.12404 14.2925L0.313803 10.4816C0.112724 10.2794 -0.000102997 10.0058 -1.90735e-06 9.72061C9.91821e-05 9.43545 0.113123 9.16193 0.314346 8.95988ZM12.6849 7.35369C12.7654 7.4342 12.8609 7.49806 12.9661 7.54163C13.0712 7.5852 13.184 7.60763 13.2978 7.60763C13.4116 7.60763 13.5243 7.5852 13.6295 7.54163C13.7347 7.49806 13.8302 7.4342 13.9107 7.35369L14.5342 6.73018C14.6928 6.56681 14.7807 6.3476 14.779 6.11993C14.7773 5.89225 14.6861 5.6744 14.525 5.51344C14.364 5.35248 14.1461 5.26134 13.9185 5.25973C13.6908 5.25812 13.4716 5.34615 13.3084 5.50481L12.6849 6.12779C12.6044 6.20827 12.5405 6.30383 12.4969 6.409C12.4534 6.51418 12.431 6.6269 12.431 6.74074C12.431 6.85458 12.4534 6.9673 12.4969 7.07247C12.5405 7.17765 12.6044 7.2732 12.6849 7.35369ZM10.3014 9.73724C10.464 9.89967 10.6843 9.99091 10.9141 9.99091C11.1439 9.99091 11.3642 9.89967 11.5267 9.73724L12.1226 9.14135C12.2031 9.06086 12.2669 8.9653 12.3105 8.86013C12.3541 8.75496 12.3765 8.64224 12.3765 8.5284C12.3765 8.41457 12.3541 8.30185 12.3105 8.19668C12.2669 8.09151 12.2031 7.99594 12.1226 7.91545C11.96 7.75289 11.7396 7.66156 11.5097 7.66156C11.3959 7.66156 11.2831 7.68398 11.178 7.72754C11.0728 7.77111 10.9773 7.83496 10.8968 7.91545L10.3009 8.51134C10.2201 8.59182 10.156 8.68745 10.1123 8.79275C10.0685 8.89806 10.0459 9.01096 10.0459 9.12499C10.0458 9.23902 10.0683 9.35195 10.112 9.45729C10.1556 9.56263 10.2197 9.65832 10.3004 9.73887L10.3014 9.73724ZM7.91802 12.1208C7.9985 12.2013 8.09406 12.2652 8.19922 12.3087C8.30439 12.3523 8.41711 12.3747 8.53094 12.3747C8.64477 12.3747 8.75749 12.3523 8.86266 12.3087C8.96782 12.2652 9.06338 12.2013 9.14386 12.1208L9.73972 11.5249C9.8983 11.3615 9.98623 11.1423 9.98452 10.9147C9.9828 10.687 9.89158 10.4691 9.73056 10.3082C9.56953 10.1472 9.35165 10.0561 9.12398 10.0545C8.89632 10.0528 8.67716 10.1409 8.51388 10.2995L7.91802 10.8954C7.83702 10.9758 7.77267 11.0713 7.72868 11.1766C7.68469 11.2819 7.66191 11.3948 7.66166 11.5089C7.66141 11.623 7.68369 11.736 7.72721 11.8415C7.77074 11.947 7.83466 12.0428 7.91531 12.1235L7.91802 12.1208ZM5.5113 14.5336C5.59178 14.6141 5.68734 14.678 5.7925 14.7215C5.89767 14.7651 6.01039 14.7875 6.12422 14.7875C6.23805 14.7875 6.35077 14.7651 6.45594 14.7215C6.5611 14.678 6.65666 14.6141 6.73714 14.5336L7.35683 13.9106C7.43902 13.8304 7.50444 13.7346 7.54929 13.6288C7.59413 13.5231 7.61751 13.4095 7.61806 13.2946C7.61861 13.1797 7.59632 13.0659 7.55248 12.9597C7.50865 12.8535 7.44415 12.7571 7.36273 12.6761C7.28131 12.595 7.18459 12.531 7.0782 12.4877C6.97182 12.4444 6.85788 12.4226 6.74302 12.4237C6.62815 12.4248 6.51466 12.4488 6.40912 12.4941C6.30359 12.5395 6.20813 12.6054 6.12828 12.688L5.50805 13.3104C5.42758 13.3909 5.36377 13.4865 5.32025 13.5917C5.27673 13.6969 5.25435 13.8096 5.2544 13.9235C5.25445 14.0373 5.27692 14.15 5.32054 14.2552C5.36415 14.3603 5.42805 14.4559 5.50859 14.5363L5.5113 14.5336Z" fill="#A71A37"/>
</svg>
