<svg width="162" height="139" viewBox="0 0 162 139" fill="none" xmlns="http://www.w3.org/2000/svg">
<g clip-path="url(#clip0)">
<path d="M60.45 34C58.75 32.1 55.95 29.8 55.35 33.3C54.95 35.3 56.55 38.2 58.85 38.4C61.75 38.5 62.55 36.2 60.45 34Z" fill="white"/>
<path d="M60.95 53.9C61.05 52.6 59.95 51.6 58.45 51.4C56.95 51.2 55.75 51.9 55.75 53.2C55.85 54.6 56.85 55.8 58.35 56C59.55 56.2 60.75 55.2 60.95 53.9Z" fill="white"/>
<path d="M20.65 84.4C20.25 90.2 28.25 94.1 34.95 94.2C35.95 94.3 35.85 93.2 35.15 93.2C26.95 92.8 22.85 88.3 21.35 85C21.05 84.3 20.85 84 20.65 84.4Z" fill="white"/>
<path d="M18.05 118.8C17.15 118.3 16.75 117.3 16.75 116.3C16.65 115.4 17.65 113.4 18.45 111.5C18.25 111.4 18.15 111.2 18.05 111.1C17.25 112.8 16.25 115.1 15.65 116.3C14.75 118.1 15.45 118.2 16.85 119.5C17.15 119.8 17.45 120.1 17.85 120.3C18.15 119.8 18.25 119.5 18.55 119.1C18.45 119.1 18.25 118.9 18.05 118.8Z" fill="white"/>
<path d="M59.75 79.4C60.05 78.7 59.65 78.8 59.05 79.2C51.15 84.4 30.55 90.6 23.75 81.4C22.65 80 21.85 81.2 21.95 82.3C26.05 95.7 56.25 86 59.75 79.4Z" fill="white"/>
<path d="M22.95 125.7C22.85 125 22.85 124.3 23.05 123.6C23.15 123.1 23.25 122.7 23.35 122.3C22.35 121.7 21.35 121.1 20.45 120.4C19.75 122 19.15 122.8 18.75 123.7C18.15 125.2 18.05 125.7 18.95 126.4C20.25 127.5 21.65 128.4 23.15 129.1C23.35 128.5 23.55 128 23.75 127.4C23.75 127.4 23.75 127.4 23.65 127.3C23.35 126.8 23.05 126.3 22.95 125.7Z" fill="white"/>
<path d="M6.74997 47.4C6.74997 45.7 6.94997 44.1 7.24997 42.4C7.14997 42.4 6.94997 42.5 6.84997 42.5C6.24997 42.5 2.44997 42.6 2.54997 45.4C2.64997 48.2 5.54997 48.2 6.74997 47.4Z" fill="white"/>
<path d="M11.25 38.9C10.55 40.3 10.65 43.8 11.85 44.8C14.55 45.9 15.55 43.5 16.15 41C16.65 39.1 17.55 37.5 16.75 37C16.45 36.8 15.85 36.5 16.05 36.2C17.05 35.6 17.35 35.4 17.15 34.2C16.95 33.2 16.25 32.5 15.25 32.4C14.45 32.3 13.65 32.7 13.25 33.4C13.65 33.2 13.45 33.1 14.05 32.9C14.65 32.7 15.15 33.1 15.35 33.6C15.55 34.1 15.15 34.7 14.65 34.9C14.05 35 13.85 34.7 13.75 34.7C13.35 34.7 12.95 35.1 12.95 35.5C12.95 35.7 13.05 35.9 13.15 36C13.55 36.3 14.05 36.5 14.55 36.6C13.05 36.9 11.95 37.8 11.25 38.9Z" fill="white"/>
<path d="M4.55002 38.9001C5.15002 39.4001 6.05002 39.6001 6.85002 39.4001C7.55002 39.2001 8.15002 38.9001 8.65002 38.4001C8.75002 37.9001 8.65002 37.3 8.35002 36.8C8.15002 36.2 7.95002 35.5 7.85002 34.8C7.45002 35.7 4.95002 35.2 4.15002 36.8C3.85002 37.6 3.95002 38.4001 4.55002 38.9001Z" fill="white"/>
<path d="M8.04997 26.3C8.24997 23.8 11.05 16 13.65 11.5C13.95 10.9 13.85 11 13.55 11.4C10.85 15.5 7.34997 23.2 6.74997 26.4C6.44997 27.7 7.84997 27.7999 8.04997 26.3Z" fill="white"/>
<path d="M7.65002 31.3C7.65002 30.5 7.65002 29.7 7.75002 28.8C7.55002 29 7.35002 29.2 7.15002 29.4C6.65002 30 6.55002 30.6 6.75002 31C6.95002 31.2 7.25002 31.3 7.65002 31.3Z" fill="white"/>
<path d="M23.85 78.3C31.65 88.7001 61.15 76.8 58.95 70.7C58.65 69.6 58.25 68.7001 57.95 67.8C57.65 67 57.45 66.2001 57.35 65.4C56.75 60.8 57.35 61.2001 55.35 59.4001C54.55 58.7001 53.95 57.9001 53.35 57C50.65 52.6 53.55 49.5 51.95 46.6C49.95 42 51.75 40.9 51.55 38.8C51.35 36.9 50.55 36 51.15 32.2001C51.65 29.1 53.65 26.7 52.35 22.8C51.95 21.9 52.75 20.8 53.75 22.5C55.15 24.9 54.65 29.1 59.35 29.4C61.55 29.6 62.35 27.3 60.45 25.9C60.05 25.5 58.95 25.5 58.35 24.9C57.75 24.3 58.45 24 58.75 24.1C59.75 24.2001 60.65 23.5 60.75 22.4C60.75 22.1 60.75 21.8 60.65 21.5C57.75 11.8 59.55 11.8 51.75 6.20005C50.85 5.50005 49.95 4.80005 49.15 3.90005C47.25 2.10005 44.85 0.700049 42.35 4.90099e-05C41.25 -0.299951 39.85 0.200049 38.55 0.400049C38.15 0.500049 37.65 0.500049 37.25 0.500049C33.95 0.700049 30.75 1.50005 27.65 2.80005C23.65 4.60005 19.45 7.00005 16.65 10.4H16.55V10.5H16.45V10.6V10.7H16.35V10.8H16.25V10.9H16.15V11H16.05C13.75 14.4 10.35 23.3 10.55 27.4C12.35 23.4 20.85 26.3001 21.95 28.2001C22.75 29.6 19.25 37 18.55 38.6C15.85 45.3 21.65 44.3 24.85 45C27.85 45.5 27.45 48.9 24.55 48.6C23.75 48.5 22.95 48.3 22.15 48C21.75 48.4001 21.45 49.1 20.95 49.3C19.95 49.6 19.45 49.1001 18.65 50.2001C17.95 51 18.15 52.3001 18.95 52.9001C19.45 53.2001 19.95 53.3001 20.55 53.4001C22.15 52.7001 23.95 52.7001 25.55 53.5C27.75 54.6 29.05 55.6 30.75 55.6C33.85 55.4 33.05 56.5 30.95 56.5C28.65 56.6 25.15 56 23.75 55.9001C18.35 55.7001 17.35 57.2001 17.35 57.2001C17.35 57.2001 17.45 59.6 19.45 59.5C21.45 59.4001 27.65 59.2001 27.55 61.4001C27.45 63 14.85 59.4 16.75 66.7C18.65 71.1 24.95 71.7 31.15 71.6C32.05 71.5 32.95 71.5 33.85 71.5C36.35 71.3 38.65 71.2 40.55 71.2C41.35 71.2 42.55 71.5 41.85 72.5C39.15 76.1 32.25 76.9 26.15 76.7C25.05 76.7 23.95 76.5 22.85 76.3C22.35 76.1001 21.65 75.9 21.15 75.7C15.35 73.4 11.05 67.1001 8.75002 60.1C8.45002 59.2 8.35002 58.3 7.15002 57.8C3.45002 56.2001 1.25002 52.4001 1.75002 48.4001C1.95002 47.3001 2.15002 46.1001 2.15002 44.9001C2.05002 44.1001 1.85002 43.2 1.75002 42.6C1.55002 41.7 1.35002 40.8001 1.25002 39.9001C1.35002 39.2001 1.45002 38.5 1.75002 37.8C1.75002 37.6 1.65002 37.5 1.55002 37.7001C1.05002 38.6001 0.750024 39.5 0.650024 40.5C0.750024 41.4001 0.950024 42.3 1.15002 43.2001C1.45002 44.1001 1.55002 45.1 1.65002 46.1C1.55002 46.4 1.35002 47.4001 1.35002 47.4001C0.150024 54.3001 3.45002 58 6.25002 59.4001C6.85002 59.7001 7.05002 60.1 7.45002 61.1C9.35002 67 12.95 72.1 17.75 75C19.45 76.1 22.65 76.7001 23.85 78.3ZM33.55 29.9C32.45 30.7 31.45 31.7001 30.75 32.9001C30.75 32.9001 27.65 32.1 29.05 28.4C29.65 26.9 31.05 25.9 32.65 25.6C34.65 25.4 36.75 25.7 38.65 26.4C40.95 27 43.25 27.8001 44.55 29.2001C45.55 30.3001 45.95 31.8001 45.75 33.2001C45.65 34 45.15 33.9 44.35 33.1C43.55 32.3 42.35 31.1 41.25 30.3C40.45 29.6 39.35 29.2001 38.35 29.2001C37.45 29.1 36.45 29.1 35.55 29.3C34.75 29.3 34.15 29.6 33.55 29.9ZM42.25 33.5C41.65 33.9001 41.05 34 40.35 33.9001C39.75 33.7001 39.35 33.1001 39.05 32.7001C38.85 32.3 38.55 32 38.15 31.7001C37.95 31.5 37.75 31.4 37.55 31.3C37.35 31.3 37.35 31.3 37.25 31.4C37.15 31.5 37.45 33.3 35.85 33.2001C35.45 33.2001 35.15 33.1001 34.85 32.9001C34.65 32.7001 34.55 32.4 34.55 32.1V31.5C34.55 31.3 34.45 31.2001 34.35 31.2001C34.25 31.2001 34.05 31 34.05 30.9C34.05 30.7 34.25 30.6 34.35 30.5C34.55 30.3 34.75 30.3001 35.25 30.2001C35.85 30.1 36.45 30 37.05 30C37.85 30.1 38.65 30.4 39.45 30.9C40.35 31.4 41.35 32.2001 41.95 32.7001C42.55 33.1001 42.75 33.3 42.25 33.5Z" fill="white"/>
<path d="M4.25002 34.7C3.75002 33.6 3.55002 32.4 3.85002 31.2C4.05002 30.4 3.95002 30.4 3.65002 31C3.15002 32.3 3.15002 33.7 3.65002 35C3.95002 35.8 4.65002 35.6 4.25002 34.7Z" fill="white"/>
<path d="M39.15 132.3C38.75 132.5 38.35 132.7 37.95 132.8C37.05 133.2 36.05 133.5 35.05 133.5C34.05 133.5 33.05 133.2 32.25 132.7C31.25 132.3 30.05 131.6 28.75 130.9C27.65 130.3 26.75 129.7 25.85 129.1C23.85 133.9 24.05 133.1 29.15 136.2C30.45 137 31.75 137.8 32.75 138.2C33.35 138.5 33.95 138.8 34.55 138.8C35.35 138.8 41.15 136 44.05 134.3C45.05 133.6 45.25 132.6 45.05 129.7C43.15 130.8 41.15 131.6 39.15 132.3Z" fill="white"/>
<path d="M55.15 41.8C54.35 42.6 54.55 47.3 58.05 47.4C59.55 47.5 60.85 46.3 60.95 44.8C61.05 42.4 56.35 40.7 55.15 41.8Z" fill="white"/>
<path d="M63.05 78.4C62.75 79.3 62.25 80.1 61.75 80.9C56.55 87.2 41.65 91.1 31.45 90.5C31.15 90.4 30.85 90.5 30.75 90.8C30.75 90.9 30.85 91.1 31.05 91.2C36.55 94.7 66.15 88.9 63.65 78.8C63.35 78.3 63.15 78.1 63.05 78.4Z" fill="white"/>
<path d="M74.75 36.7C75.25 34.2 75.25 30.3 71.85 28.6C71.45 28.3 71.35 27.6 71.65 27.2C73.85 23.9 69.15 18.4 68.45 17.1C66.45 13.3 64.75 10.6 62.85 8.79995C61.25 7.29995 56.95 4.79995 52.55 2.79995C50.35 1.69995 49.95 1.89995 52.25 3.19995C55.25 4.79995 58.05 6.69995 60.65 8.89995C62.55 10.7 64.25 13.3 66.25 17.2C67.05 18.5 71.75 24 69.45 27.3C69.25 27.5 69.05 28.4 69.75 28.8C73.15 30.5 73.15 34.4 72.75 36.9C72.55 37.7 73.15 38.2 74.05 39.5C74.55 40.4 74.85 41.5 74.85 42.5999C74.85 43.1999 74.75 43.9 74.45 44.5C74.05 45.4 73.65 45.1 73.45 45.9C73.45 47.1 73.55 48.3999 73.95 49.5999C74.15 50.1999 74.35 50.8999 74.25 51.5999C74.25 53 73.55 54.2999 72.55 55.2C71.35 56.4 71.45 56.6 70.95 58.4C70.65 59.4 70.05 60.1999 69.15 60.5999C66.95 61.6999 64.55 62.4 62.15 62.5C62.15 62.5 67.95 66.0999 70.75 61.0999C71.85 60.7999 72.75 59.9 73.05 58.9C73.25 58.1 73.45 57.3999 73.85 56.5999C74.45 55.5 75.25 54.9 75.75 54C76.15 53.2999 76.45 52.3999 76.55 51.5999C76.55 50.8999 76.45 50.1999 76.25 49.5999C75.65 47.5 75.65 46.5 75.95 45.9C76.25 45 77.05 44.6999 77.05 42.5999C77.15 41.5 76.85 40.4 76.35 39.5C75.15 38 74.55 37.5 74.75 36.7Z" fill="white"/>
<path d="M63.15 86.3C59.85 90 49.75 93.7 44.85 94.7C36.55 96.5 27.45 95.7 20.65 89.4C20.35 89.2 19.65 88.8 19.75 89.7C19.85 92.2 21.55 93.8 23.45 95.1C24.15 95.6 24.85 96 25.65 96.4C25.55 96.5 25.45 96.6 25.35 96.8C22.45 100.4 20.25 102.4 18.85 104.6C17.95 105.9 17.45 106.6 17.55 107.3C17.85 108.5 18.55 109.5 19.65 110.2C22.25 105.6 24.45 102.2 26.95 97.6C27.05 97.4 27.15 97.3 27.15 97.2C27.75 97.5 28.35 97.7 28.95 97.9C26.35 102.8 22.75 108.1 20.65 112.6C19.65 114.5 19.25 115.5 19.45 116.4C19.85 117.8 22.25 119 24.05 119.7C25.75 112.3 28.05 105.3 29.75 98.2L31.85 98.7H31.75C30.15 105.8 27.95 111.5 26.35 118.9C24.75 126.3 25.35 126.3 33.05 129.8C33.65 130.1 34.25 130.3 34.95 130.3C35.65 130.3 36.45 130.1 37.05 129.8C49.45 124.8 46.35 125.1 43.25 111.5C42.25 107.5 41.35 103.4 40.45 99.2V99.1C41.25 99 41.95 98.9 42.65 98.8C42.55 98.9 42.55 99.1 42.75 99.5C44.75 106.6 47.05 113.1 48.35 120.4C48.35 120.7 48.45 120.9 48.45 121C50.55 120.2 52.55 119.4 53.75 118.8C55.45 118 54.85 117.3 54.15 115.5C53.55 113.9 52.55 112.5 51.45 110.1C50.25 107.5 49.05 105.1 48.25 103.2C47.15 101.1 46.65 99.8 46.15 98.8C46.05 98.5 45.75 98.3 45.35 98.2C46.45 98 47.45 97.7 48.55 97.4C48.15 97.6 47.95 98.1 48.15 98.5C50.45 103 52.85 106.9 55.05 111.6C56.35 110.4 57.85 108.9 57.95 108.2C57.95 106.6 54.45 100.5 51.85 97C51.65 96.7 51.55 96.5 51.35 96.5C52.25 96.2 53.15 95.8 54.05 95.3C58.15 93.3 62.25 90.5 63.75 86.9C63.75 86.5 63.35 86 63.15 86.3ZM34.85 100.9C34.75 102 34.55 103.1 34.25 104.2C33.95 104.8 33.55 104.8 33.25 104.1C33.15 103 33.05 101.9 33.15 100.8C33.25 100.1 33.25 99.4 33.35 98.9V98.8L35.15 99C35.05 99.6 34.95 100.2 34.85 100.9ZM39.25 108.5C39.15 110.1 38.75 110.1 38.15 108.5C37.55 106.3 37.15 104.1 36.85 101.8C36.65 100.6 36.55 99.7 36.35 99H38.25V99.1C38.35 99.7 38.45 100.5 38.55 101.6C38.95 103.9 39.25 106.2 39.25 108.5Z" fill="white"/>
<path d="M52.75 122.5C52.35 122.7 52.05 122.9 51.75 123C50.95 123.3 50.15 123.6 49.45 124C49.05 124.2 49.15 124.5 49.15 124.9C49.25 126.7 48.95 127.7 48.15 128.4C48.25 129.2 48.25 129.9 48.25 130.8C50.05 130.2 51.75 129.4 53.45 128.5C54.95 127.6 54.55 127 53.95 125.3C53.55 124.4 53.15 123.4 52.75 122.5Z" fill="white"/>
<path d="M57.35 113.9C56.95 114.2 56.65 114.4 56.65 114.9C56.75 115.6 57.05 116.2 57.25 116.8C57.55 117.5 57.75 118.3 57.65 119.1C57.45 119.7 56.85 120.2 55.75 120.9C55.45 121.1 55.15 121.3 54.65 121.5C54.95 122 55.05 122.4 55.25 122.8C58.55 120.8 59.75 120.1 60.05 119C60.35 117.9 59.85 116.8 57.85 113.4L57.35 113.9Z" fill="white"/>
<path d="M102.65 105.4L103.35 106.1L105.15 104.3V115.1H107.45V103H105.05L102.65 105.4Z" fill="white"/>
<path d="M115.15 106.5C115.75 106.2 116.35 105.7 116.95 105.2C117.45 104.6 117.75 103.9 117.75 103.2C117.75 102.4 117.35 101.6 116.75 101.1C116.05 100.4 115.05 100 113.95 100C112.85 100 111.85 100.4 111.05 101.2C110.35 101.8 110.05 102.7 110.05 103.6C110.05 104.8 110.85 105.9 112.45 107C111.35 107.6 110.35 108.5 109.75 109.6C109.25 110.5 109.15 111.4 109.35 112.4C109.55 113.3 110.15 114 110.95 114.5C111.75 115.1 112.75 115.5 113.85 115.4C115.15 115.5 116.45 115 117.35 114.2C118.25 113.3 118.65 112.1 118.65 110.8C118.65 109.8 118.25 108.9 117.55 108.2C116.75 107.6 116.05 107 115.15 106.5ZM111.95 103.1C111.95 102.6 112.15 102.1 112.45 101.8C112.85 101.4 113.35 101.1 113.95 101.2C114.55 101.2 115.15 101.4 115.45 101.9C115.75 102.3 115.95 102.8 115.95 103.3C115.85 104.5 115.15 105.5 114.15 106C112.75 105 111.95 104 111.95 103.1ZM115.65 113.3C115.25 113.9 114.45 114.3 113.75 114.3C113.15 114.3 112.45 114 112.05 113.5C111.55 113 111.25 112.4 111.15 111.7C110.95 111 111.05 110.2 111.45 109.5C111.85 108.7 112.45 108 113.15 107.5L113.75 107.9L114.35 108.3L115.35 109.2C115.95 109.8 116.35 110.6 116.35 111.4C116.35 112.2 116.15 112.8 115.65 113.3Z" fill="white"/>
<path d="M127.25 103H125.45L118.75 115H125.05V117.6H127.35V115H129.55V114H127.35V103H127.25ZM124.95 114H120.55L124.95 105.8V114Z" fill="white"/>
<path d="M136.55 106.4C135.85 106.1 135.05 106 134.25 106.1C133.55 106.2 132.85 106.5 132.25 107C132.65 105.8 133.25 104.7 133.95 103.6C134.25 103.2 134.65 102.6 135.05 102L135.55 101.2L136.05 100.4H134.65C134.35 100.7 134.05 101.1 133.75 101.4L133.35 101.9L132.95 102.5C132.35 103.2 131.75 104 131.25 104.8C130.15 106.6 129.45 108.7 129.45 110.9C129.45 112.1 129.95 113.3 130.75 114.1C131.65 114.9 132.95 115.4 134.15 115.3C135.55 115.3 136.85 114.8 137.85 113.9C138.65 113 139.15 111.8 139.15 110.6C139.15 109.6 138.85 108.7 138.35 107.9C137.95 107.3 137.35 106.7 136.55 106.4ZM136.35 113.2C135.85 113.9 135.15 114.3 134.25 114.3C133.55 114.3 132.85 114 132.35 113.5C131.75 112.8 131.55 111.9 131.55 111C131.45 110 131.75 108.9 132.25 108.1C132.65 107.4 133.45 107 134.25 107C135.05 107 135.85 107.5 136.25 108.2C136.75 108.9 136.95 109.8 136.85 110.7C136.95 111.5 136.75 112.4 136.35 113.2Z" fill="white"/>
<path d="M101.05 74V70.4H104.85C107.75 70.6 110.15 68.4 110.35 65.5C110.45 63.3 109.25 61.2 107.15 60.4C106.45 60 105.65 59.8 104.75 59.9H97.95V74H101.05ZM101.05 62.7H104.75C106.05 62.7 107.15 63.7 107.15 65V65.1C107.15 66.4 106.15 67.5 104.95 67.5H101.05V62.7Z" fill="white"/>
<path d="M125.05 74L124.85 73.6L118.85 60.1V59.9H115.85V60.1L109.85 73.6L109.65 74H112.75L112.85 73.9L113.85 71.6H120.65L121.75 73.9L121.85 74H125.05ZM115.05 68.8L117.35 63.2L119.65 68.8H115.05Z" fill="white"/>
<path d="M151.75 74C152.55 74 153.35 73.8 154.05 73.5C156.65 72.3 157.85 69.3 156.65 66.6C155.75 64.7 153.85 63.5 151.75 63.6H147.85V59.9H144.85V74H151.75ZM147.85 66.4H151.75C153.05 66.4 154.05 67.5 154.05 68.7C154.05 70 153.05 71.2 151.75 71.2H151.65H147.95V66.4H147.85Z" fill="white"/>
<path d="M160.95 59.9H158.55H158.25V60.2V73.8V74H158.55H160.95H161.25V73.8V60.2V59.9H160.95Z" fill="white"/>
<path d="M141.85 73.8V60.2V59.9H141.55H138.95H138.85L138.75 60.1L134.35 66.4L129.85 60.1L129.75 59.9H129.55H126.95H126.65V60.2V73.8V74H126.95H129.25H129.55V73.8V64.7L133.55 70.3L133.65 70.4H133.75H134.65H134.85L134.95 70.3L138.95 64.7V73.8V74H139.25H141.55H141.85V73.8Z" fill="white"/>
<path d="M83.55 74H93.05V74.1L93.15 75.8H95.95V71.3H94.15V59.9H83.95L82.45 71.2H80.65V75.7H83.45L83.55 74ZM86.55 62.6H91.05V71.2H85.35L86.55 62.6Z" fill="white"/>
<path d="M105.45 95.2L103.05 89.8H102.05L99.65 95.2H100.65L102.45 90.7H102.55L104.45 95.2H105.45Z" fill="white"/>
<path d="M117.55 95.2V89.8H116.45L114.65 92.4L112.75 89.8H111.65V95.2H112.65V91.2L114.45 93.7H114.75L116.55 91.2V95.2H117.55Z" fill="white"/>
<path d="M139.25 90.5001C139.85 90.5001 140.45 90.7001 140.95 91.1001L141.55 90.5001C140.95 89.9001 140.15 89.6001 139.25 89.6001C138.55 89.6001 137.75 89.9001 137.25 90.4001C136.15 91.5001 136.15 93.3001 137.25 94.4001C137.85 94.9001 138.55 95.2001 139.25 95.2001C140.05 95.3001 140.95 94.9001 141.55 94.3001L140.95 93.7001C140.45 94.1001 139.85 94.3001 139.25 94.3001C138.75 94.3001 138.25 94.1001 137.95 93.7001C137.55 93.4001 137.35 92.9001 137.45 92.4001C137.45 91.9001 137.65 91.4001 137.95 91.1001C138.25 90.8001 138.75 90.5001 139.25 90.5001Z" fill="white"/>
<path d="M121.05 95.3C122.55 95.4 123.95 94.2 123.95 92.6C123.95 91.8 123.65 91 123.05 90.4C122.55 89.8 121.75 89.5 120.95 89.6C120.15 89.6 119.45 89.9 118.95 90.5C118.45 91 118.25 91.7 118.15 92.4C118.15 93.1 118.35 93.8 118.85 94.3C119.55 94.9 120.25 95.2 121.05 95.3ZM119.75 91.1C120.05 90.7 120.55 90.5 121.05 90.5C122.15 90.5 122.95 91.3 122.95 92.4C122.95 92.9 122.75 93.4 122.45 93.7C122.15 94.1 121.55 94.3 121.05 94.3C120.05 94.3 119.15 93.4 119.15 92.4C119.15 92 119.35 91.5 119.75 91.1Z" fill="white"/>
<path d="M152.15 92.2C152.25 92.1 152.45 92 152.55 91.8C152.65 91.6 152.75 91.4 152.75 91.2C152.75 90.8 152.65 90.5 152.35 90.2C152.05 89.9 151.55 89.8 151.15 89.8H148.35V95.2H151.25C151.75 95.2 152.25 95 152.55 94.7C152.85 94.4 153.05 94 153.05 93.6C153.05 93.3 152.95 93 152.75 92.7C152.55 92.4 152.35 92.2 152.15 92.2ZM149.25 90.6H150.95C151.15 90.6 151.35 90.7 151.55 90.8C151.65 90.9 151.75 91.1 151.75 91.2C151.75 91.4 151.65 91.5 151.55 91.7C151.45 91.8 151.25 91.8 151.15 91.9H149.25V90.6ZM151.85 94C151.65 94.2 151.45 94.3 151.15 94.3H149.25V92.6H151.25C151.45 92.6 151.75 92.7 151.85 92.9C151.95 93.1 152.05 93.2 152.05 93.4C152.05 93.7 151.95 93.9 151.85 94Z" fill="white"/>
<path d="M130.95 94.3001C131.45 94.9001 132.25 95.3001 133.05 95.3001C133.85 95.3001 134.55 95.0001 135.15 94.4001C136.15 93.3001 136.15 91.5001 135.15 90.4001C134.65 89.9001 133.85 89.6001 133.15 89.6001C132.35 89.6001 131.55 89.9001 131.05 90.5001C130.55 91.0001 130.35 91.7001 130.25 92.4001C130.15 93.1001 130.45 93.8001 130.95 94.3001ZM131.65 91.1001C131.95 90.7001 132.55 90.5001 133.05 90.5001C133.55 90.5001 134.05 90.7001 134.35 91.1001C134.75 91.4001 134.95 91.9001 134.85 92.4001C134.85 92.9001 134.65 93.4001 134.35 93.7001C134.05 94.1001 133.55 94.3001 133.05 94.3001C132.55 94.3001 132.05 94.1001 131.65 93.7001C130.95 93.0001 130.95 91.9001 131.65 91.1001Z" fill="white"/>
<path d="M155.55 89.8L153.15 95.2H154.25L154.65 94.2H157.65L158.05 95.2H159.05L156.65 89.8H155.55ZM154.95 93.3L155.95 90.7L157.05 93.3H154.95Z" fill="white"/>
<path d="M95.35 92.2C95.45 92.1 95.65 92 95.75 91.8C95.85 91.6 95.85 91.4 95.95 91.2C95.95 90.8 95.85 90.5 95.55 90.2C95.15 89.9 94.75 89.8 94.35 89.8H91.55V95.2H94.45C94.95 95.2 95.45 95 95.75 94.7C96.05 94.4 96.25 94 96.25 93.6C96.25 93.3 96.15 93 95.95 92.7C95.85 92.4 95.65 92.2 95.35 92.2ZM92.55 90.6H94.25C94.45 90.6 94.65 90.7 94.75 90.8C94.85 90.9 94.95 91.1 94.95 91.2C94.95 91.4 94.85 91.5 94.75 91.7C94.65 91.8 94.45 91.8 94.35 91.9H92.45V90.6H92.55ZM95.05 94C94.85 94.2 94.65 94.3 94.45 94.3H92.55V92.6H94.55C94.75 92.6 95.05 92.7 95.15 92.9C95.35 93 95.35 93.2 95.35 93.4C95.35 93.7 95.25 93.9 95.05 94Z" fill="white"/>
<path d="M129.45 95.2V89.8H128.45V91.8H125.65V89.8H124.65V95.2H125.65V92.6H128.45V95.2H129.45Z" fill="white"/>
<path d="M110.95 92.4001C110.95 91.7001 110.65 90.9001 110.15 90.4001C109.65 89.9001 108.85 89.6001 108.15 89.6001C107.35 89.6001 106.55 89.9001 106.05 90.5001C105.65 91.0001 105.35 91.7001 105.35 92.4001C105.35 93.1001 105.55 93.8001 106.05 94.3001C107.05 95.5001 108.95 95.6001 110.05 94.5001L110.15 94.4001C110.65 93.8001 110.95 93.1001 110.95 92.4001ZM109.45 93.7001C109.15 94.1001 108.65 94.3001 108.15 94.3001C107.65 94.3001 107.15 94.1001 106.75 93.7001C106.45 93.3001 106.25 92.9001 106.25 92.4001C106.25 91.9001 106.35 91.5001 106.75 91.1001C107.05 90.7001 107.65 90.5001 108.15 90.5001C108.65 90.5001 109.15 90.7001 109.45 91.1001C109.85 91.5001 109.95 91.9001 109.95 92.4001C110.05 92.9001 109.85 93.4001 109.45 93.7001Z" fill="white"/>
<path d="M144.65 89.7001C143.85 89.7001 143.15 90.0001 142.55 90.6001C142.05 91.1001 141.85 91.8001 141.75 92.5001C141.75 93.2001 141.95 93.9001 142.55 94.4001C143.05 95.0001 143.85 95.4001 144.65 95.4001C145.45 95.4001 146.15 95.1001 146.75 94.5001C147.85 93.4001 147.85 91.7001 146.85 90.6001L146.75 90.5001C146.15 89.9001 145.45 89.6001 144.65 89.7001ZM146.05 93.8001C145.75 94.2001 145.15 94.4001 144.65 94.4001C144.15 94.4001 143.65 94.2001 143.25 93.8001C142.95 93.4001 142.75 93.0001 142.75 92.5001C142.75 92.0001 142.95 91.6001 143.25 91.2001C143.55 90.8001 144.15 90.6001 144.65 90.6001C145.15 90.6001 145.65 90.8001 146.05 91.2001C146.45 91.6001 146.55 92.0001 146.55 92.5001C146.65 92.9001 146.45 93.4001 146.05 93.8001Z" fill="white"/>
<path d="M90.05 94C89.65 94 89.45 94.2 89.45 94.6C89.45 94.9 89.75 95.2 90.05 95.2C90.35 95.2 90.65 94.9 90.75 94.6C90.75 94.2 90.45 94 90.05 94Z" fill="white"/>
<path d="M85.85 92.4L83.85 89.8H82.85V95.2H83.75V91.2H83.85L85.65 93.7H85.95L87.75 91.2V95.2H88.75V89.8H87.65L85.85 92.4Z" fill="white"/>
<path d="M97.55 94C97.15 94 96.85 94.2 96.85 94.6C96.85 95 97.15 95.2 97.55 95.2C97.85 95.2 98.15 94.9 98.15 94.6C98.15 94.3 97.95 94 97.65 94C97.55 94 97.55 94 97.55 94Z" fill="white"/>
<path d="M118.45 79.8H117.45L115.55 82.4L113.65 79.8H112.65V85.2H113.55V81.2L115.35 83.8H115.65L117.45 81.2H117.55V85.2H118.45V79.8Z" fill="white"/>
<path d="M128.35 81.8H125.45V79.8H124.45V85.2H125.45V82.8H128.35V85.2H129.25V79.8H128.35V81.8Z" fill="white"/>
<path d="M130.15 79.8V85.2H131.05L134.15 81.2V85.2H135.05V79.8H134.25L131.15 83.8V79.8H130.15Z" fill="white"/>
<path d="M111.65 85.2V79.8H110.75L107.75 83.8V79.8H106.75V85.2H107.65L110.75 81.2V85.2H111.65Z" fill="white"/>
<path d="M123.55 80.7V79.8H119.35V85.2H123.65V84.3H120.35V82.8H123.25V81.9H120.35V80.7H123.55Z" fill="white"/>
<path d="M137.95 34.2C138.75 34.2 139.55 33.8999 140.15 33.2999L139.55 32.7C139.15 33.1 138.55 33.2999 137.95 33.2999C137.45 33.2999 136.95 33.0999 136.65 32.7999C136.25 32.3999 136.05 31.9 136.05 31.4C136.05 30.9 136.25 30.4 136.65 30.1C136.95 29.7 137.45 29.5 137.95 29.6C138.55 29.6 139.15 29.8 139.55 30.2L140.15 29.6C139.55 29 138.75 28.7 137.95 28.7C137.15 28.7 136.45 29 135.95 29.6C135.45 30.1 135.05 30.8 135.05 31.5C135.15 32.9 136.45 34.1 137.95 34.2Z" fill="white"/>
<path d="M109.05 31.6H111.95V34H112.85V28.6H111.95V30.7H109.05V28.6H108.05V34H109.05V31.6Z" fill="white"/>
<path d="M134.05 33.5C134.45 33.1 134.65 32.5999 134.65 32.0999C134.65 31.5999 134.45 31.0999 134.15 30.7999C133.75 30.3999 133.15 30.2 132.55 30.2H130.95V28.7H129.95V34H132.55C133.05 34 133.65 33.8 134.05 33.5ZM130.95 31H132.45C132.75 31 133.05 31.0999 133.35 31.2999C133.55 31.4999 133.65 31.7999 133.65 32.0999C133.65 32.3999 133.55 32.7 133.25 33C133.05 33.2 132.85 33.2999 132.55 33.2999H130.85L130.95 31Z" fill="white"/>
<path d="M86.05 33.1H88.95L89.35 34H90.45L88.05 28.6H86.95L84.65 34H85.65L86.05 33.1ZM87.35 29.6H87.45L88.55 32.2H86.35L87.35 29.6Z" fill="white"/>
<path d="M114.75 29.5H117.95V28.6H113.75V34H114.75V29.5Z" fill="white"/>
<path d="M141.85 31.6H143.05L144.55 34H145.75L143.95 31.2L145.55 28.6H144.45L143.05 30.7H141.85V28.6H140.95V34H141.85V31.6Z" fill="white"/>
<path d="M150.35 30.1V34H151.25V28.6H150.45L147.25 32.6V28.6H146.45V34H147.25L150.35 30.1Z" fill="white"/>
<path d="M156.05 27.1H153.35V27.8H156.05V27.1Z" fill="white"/>
<path d="M156.15 30.1V34H157.15V28.6H156.15L153.15 32.6V28.6H152.15V34H153.05L156.15 30.1Z" fill="white"/>
<path d="M96.85 34L98.45 31.9L99.95 34H101.15L99.05 31.2L100.95 28.6H99.85L98.45 30.6L97.05 28.6H95.85L97.75 31.2L95.85 34H96.85Z" fill="white"/>
<path d="M103.05 33.1H105.95L106.35 34H107.45L105.05 28.6H104.05L101.65 34H102.65L103.05 33.1ZM104.45 29.6L105.65 32.2H103.45L104.45 29.6Z" fill="white"/>
<path d="M126.35 29.6H126.45L128.25 34H129.35L126.95 28.6H125.85L123.55 34H124.55L126.35 29.6Z" fill="white"/>
<path d="M92.05 32.5999H93.75C94.85 32.5999 95.75 31.7999 95.75 30.7999V30.7C95.75 29.6 94.85 28.7 93.75 28.7H91.15V34H92.15L92.05 32.5999ZM92.05 29.6H93.65C93.95 29.6 94.25 29.7 94.55 29.9C94.75 30.1 94.85 30.4 94.85 30.7C94.85 31.3 94.35 31.7999 93.75 31.7999H92.05V29.6Z" fill="white"/>
<path d="M122.85 33.2H119.55V31.7H122.35V30.8H119.55V29.6H122.75V28.6H118.55V34H122.85V33.2Z" fill="white"/>
<path d="M120.55 39.4V39.6L114.55 53.1L114.35 53.5H117.65V53.3L118.65 51H125.55L126.55 53.3L126.75 53.5H129.85L129.65 53.1L123.65 39.6V39.4H120.55ZM124.35 48.2H119.85L122.15 42.6L124.35 48.2Z" fill="white"/>
<path d="M101.15 39.6V53.2V53.4H101.45H112.25H112.45V53.2V50.9V50.7H112.25H104.15V47.5H110.95H111.35V47.2V45V44.7H110.95H104.15V42.1H111.95H112.25V41.9V39.6V39.4H111.95H101.45H101.15V39.6Z" fill="white"/>
<path d="M147.15 53.4001V49.8H150.95C153.85 49.9 156.25 47.6 156.35 44.7001V44.6C156.35 42.6 155.15 40.7 153.35 39.8C152.65 39.5 151.85 39.3 150.95 39.3H144.15V53.4001H147.15ZM147.15 42.1H150.85C152.15 42.1 153.25 43.1001 153.25 44.4001C153.25 44.5001 153.25 44.5 153.25 44.6C153.35 45.9 152.35 46.9 151.05 47C151.05 47 151.05 47 150.95 47H147.05V42.1H147.15Z" fill="white"/>
<path d="M90.55 53.4H90.85H93.15H93.55V53.2V42.1H98.25H98.45V41.8V39.6V39.4H98.25H85.85H85.55V39.6V41.8V42.1H85.85H90.55V53.2V53.4Z" fill="white"/>
<path d="M133.65 53.4H134.05H136.35H136.65V53.2V42.1H141.35H141.65V41.8V39.6V39.4H141.35H129.05H128.65V39.6V41.8V42.1H129.05H133.65V53.2V53.4Z" fill="white"/>
</g>
<defs>
<clipPath id="clip0">
<rect width="160.5" height="139" fill="white" transform="translate(0.75)"/>
</clipPath>
</defs>
</svg>
